<svg width="139" height="73" viewBox="0 0 139 73" fill="none" xmlns="http://www.w3.org/2000/svg">
<path d="M12.5391 67H11.2266L8.92188 59.3516C8.8125 59.013 8.6901 58.5859 8.55469 58.0703C8.41927 57.5547 8.34896 57.2448 8.34375 57.1406C8.22917 57.8281 8.04688 58.5807 7.79688 59.3984L5.5625 67H4.25L1.21094 55.5781H2.61719L4.42188 62.6328C4.67188 63.6224 4.85417 64.5182 4.96875 65.3203C5.10938 64.3672 5.31771 63.4349 5.59375 62.5234L7.64062 55.5781H9.04688L11.1953 62.5859C11.4453 63.3932 11.6562 64.3047 11.8281 65.3203C11.9271 64.5807 12.1146 63.6797 12.3906 62.6172L14.1875 55.5781H15.5938L12.5391 67ZM20.8047 67.1562C19.5391 67.1562 18.5391 66.7708 17.8047 66C17.0755 65.2292 16.7109 64.1589 16.7109 62.7891C16.7109 61.4089 17.0495 60.3125 17.7266 59.5C18.4089 58.6875 19.3229 58.2812 20.4688 58.2812C21.5417 58.2812 22.3906 58.6354 23.0156 59.3438C23.6406 60.0469 23.9531 60.9766 23.9531 62.1328V62.9531H18.0547C18.0807 63.9583 18.3333 64.7214 18.8125 65.2422C19.2969 65.763 19.9766 66.0234 20.8516 66.0234C21.7734 66.0234 22.6849 65.8307 23.5859 65.4453V66.6016C23.1276 66.7995 22.6927 66.9401 22.2812 67.0234C21.875 67.112 21.3828 67.1562 20.8047 67.1562ZM20.4531 59.3672C19.7656 59.3672 19.2161 59.5911 18.8047 60.0391C18.3984 60.487 18.1589 61.1068 18.0859 61.8984H22.5625C22.5625 61.0807 22.3802 60.4557 22.0156 60.0234C21.651 59.5859 21.1302 59.3672 20.4531 59.3672ZM30.1562 58.2969C31.2812 58.2969 32.1536 58.6823 32.7734 59.4531C33.3984 60.2188 33.7109 61.3047 33.7109 62.7109C33.7109 64.1172 33.3958 65.2109 32.7656 65.9922C32.1406 66.7682 31.2708 67.1562 30.1562 67.1562C29.599 67.1562 29.0885 67.0547 28.625 66.8516C28.1667 66.6432 27.7812 66.3255 27.4688 65.8984H27.375L27.1016 67H26.1719V54.8438H27.4688V57.7969C27.4688 58.4583 27.4479 59.0521 27.4062 59.5781H27.4688C28.0729 58.724 28.9688 58.2969 30.1562 58.2969ZM29.9688 59.3828C29.0833 59.3828 28.4453 59.638 28.0547 60.1484C27.6641 60.6536 27.4688 61.5078 27.4688 62.7109C27.4688 63.9141 27.6693 64.776 28.0703 65.2969C28.4714 65.8125 29.1146 66.0703 30 66.0703C30.7969 66.0703 31.3906 65.7812 31.7812 65.2031C32.1719 64.6198 32.3672 63.7839 32.3672 62.6953C32.3672 61.5807 32.1719 60.75 31.7812 60.2031C31.3906 59.6562 30.7865 59.3828 29.9688 59.3828ZM45.9688 65.8516H45.8984C45.2995 66.7214 44.4036 67.1562 43.2109 67.1562C42.0911 67.1562 41.2188 66.7734 40.5938 66.0078C39.974 65.2422 39.6641 64.1536 39.6641 62.7422C39.6641 61.3307 39.9766 60.2344 40.6016 59.4531C41.2266 58.6719 42.0964 58.2812 43.2109 58.2812C44.3724 58.2812 45.263 58.7031 45.8828 59.5469H45.9844L45.9297 58.9297L45.8984 58.3281V54.8438H47.1953V67H46.1406L45.9688 65.8516ZM43.375 66.0703C44.2604 66.0703 44.901 65.8307 45.2969 65.3516C45.6979 64.8672 45.8984 64.0885 45.8984 63.0156V62.7422C45.8984 61.5286 45.6953 60.6641 45.2891 60.1484C44.888 59.6276 44.2448 59.3672 43.3594 59.3672C42.599 59.3672 42.0156 59.6641 41.6094 60.2578C41.2083 60.8464 41.0078 61.6797 41.0078 62.7578C41.0078 63.8516 41.2083 64.6771 41.6094 65.2344C42.0104 65.7917 42.599 66.0703 43.375 66.0703ZM53.5703 67.1562C52.3047 67.1562 51.3047 66.7708 50.5703 66C49.8411 65.2292 49.4766 64.1589 49.4766 62.7891C49.4766 61.4089 49.8151 60.3125 50.4922 59.5C51.1745 58.6875 52.0885 58.2812 53.2344 58.2812C54.3073 58.2812 55.1562 58.6354 55.7812 59.3438C56.4062 60.0469 56.7188 60.9766 56.7188 62.1328V62.9531H50.8203C50.8464 63.9583 51.099 64.7214 51.5781 65.2422C52.0625 65.763 52.7422 66.0234 53.6172 66.0234C54.5391 66.0234 55.4505 65.8307 56.3516 65.4453V66.6016C55.8932 66.7995 55.4583 66.9401 55.0469 67.0234C54.6406 67.112 54.1484 67.1562 53.5703 67.1562ZM53.2188 59.3672C52.5312 59.3672 51.9818 59.5911 51.5703 60.0391C51.1641 60.487 50.9245 61.1068 50.8516 61.8984H55.3281C55.3281 61.0807 55.1458 60.4557 54.7812 60.0234C54.4167 59.5859 53.8958 59.3672 53.2188 59.3672ZM60.8125 67L57.5625 58.4375H58.9531L60.7969 63.5156C61.2135 64.7031 61.4583 65.474 61.5312 65.8281H61.5938C61.651 65.5521 61.8307 64.9818 62.1328 64.1172C62.4401 63.2474 63.125 61.3542 64.1875 58.4375H65.5781L62.3281 67H60.8125ZM74.3438 62.7109C74.3438 64.1068 73.9922 65.1979 73.2891 65.9844C72.5859 66.7656 71.6146 67.1562 70.375 67.1562C69.6094 67.1562 68.9297 66.9766 68.3359 66.6172C67.7422 66.2578 67.2839 65.7422 66.9609 65.0703C66.638 64.3984 66.4766 63.612 66.4766 62.7109C66.4766 61.3151 66.8255 60.2292 67.5234 59.4531C68.2214 58.6719 69.1901 58.2812 70.4297 58.2812C71.6276 58.2812 72.5781 58.6797 73.2812 59.4766C73.9896 60.2734 74.3438 61.3516 74.3438 62.7109ZM67.8203 62.7109C67.8203 63.8047 68.0391 64.638 68.4766 65.2109C68.9141 65.7839 69.5573 66.0703 70.4062 66.0703C71.2552 66.0703 71.8984 65.7865 72.3359 65.2188C72.7786 64.6458 73 63.8099 73 62.7109C73 61.6224 72.7786 60.7969 72.3359 60.2344C71.8984 59.6667 71.25 59.3828 70.3906 59.3828C69.5417 59.3828 68.901 59.6615 68.4688 60.2188C68.0365 60.776 67.8203 61.6068 67.8203 62.7109ZM77.9219 67H76.625V54.8438H77.9219V67ZM84.2891 67.1562C83.0234 67.1562 82.0234 66.7708 81.2891 66C80.5599 65.2292 80.1953 64.1589 80.1953 62.7891C80.1953 61.4089 80.5339 60.3125 81.2109 59.5C81.8932 58.6875 82.8073 58.2812 83.9531 58.2812C85.026 58.2812 85.875 58.6354 86.5 59.3438C87.125 60.0469 87.4375 60.9766 87.4375 62.1328V62.9531H81.5391C81.5651 63.9583 81.8177 64.7214 82.2969 65.2422C82.7812 65.763 83.4609 66.0234 84.3359 66.0234C85.2578 66.0234 86.1693 65.8307 87.0703 65.4453V66.6016C86.612 66.7995 86.1771 66.9401 85.7656 67.0234C85.3594 67.112 84.8672 67.1562 84.2891 67.1562ZM83.9375 59.3672C83.25 59.3672 82.7005 59.5911 82.2891 60.0391C81.8828 60.487 81.6432 61.1068 81.5703 61.8984H86.0469C86.0469 61.0807 85.8646 60.4557 85.5 60.0234C85.1354 59.5859 84.6146 59.3672 83.9375 59.3672ZM93.6406 67.1562C93.0833 67.1562 92.5729 67.0547 92.1094 66.8516C91.651 66.6432 91.2656 66.3255 90.9531 65.8984H90.8594C90.9219 66.3984 90.9531 66.8724 90.9531 67.3203V70.8438H89.6562V58.4375H90.7109L90.8906 59.6094H90.9531C91.2865 59.1406 91.6745 58.8021 92.1172 58.5938C92.5599 58.3854 93.0677 58.2812 93.6406 58.2812C94.776 58.2812 95.651 58.6693 96.2656 59.4453C96.8854 60.2214 97.1953 61.3099 97.1953 62.7109C97.1953 64.1172 96.8802 65.2109 96.25 65.9922C95.625 66.7682 94.7552 67.1562 93.6406 67.1562ZM93.4531 59.3828C92.5781 59.3828 91.9453 59.625 91.5547 60.1094C91.1641 60.5938 90.9635 61.3646 90.9531 62.4219V62.7109C90.9531 63.9141 91.1536 64.776 91.5547 65.2969C91.9557 65.8125 92.599 66.0703 93.4844 66.0703C94.224 66.0703 94.8021 65.7708 95.2188 65.1719C95.6406 64.5729 95.8516 63.7474 95.8516 62.6953C95.8516 61.6276 95.6406 60.8099 95.2188 60.2422C94.8021 59.6693 94.2135 59.3828 93.4531 59.3828ZM103.086 67.1562C101.82 67.1562 100.82 66.7708 100.086 66C99.3568 65.2292 98.9922 64.1589 98.9922 62.7891C98.9922 61.4089 99.3307 60.3125 100.008 59.5C100.69 58.6875 101.604 58.2812 102.75 58.2812C103.823 58.2812 104.672 58.6354 105.297 59.3438C105.922 60.0469 106.234 60.9766 106.234 62.1328V62.9531H100.336C100.362 63.9583 100.615 64.7214 101.094 65.2422C101.578 65.763 102.258 66.0234 103.133 66.0234C104.055 66.0234 104.966 65.8307 105.867 65.4453V66.6016C105.409 66.7995 104.974 66.9401 104.562 67.0234C104.156 67.112 103.664 67.1562 103.086 67.1562ZM102.734 59.3672C102.047 59.3672 101.497 59.5911 101.086 60.0391C100.68 60.487 100.44 61.1068 100.367 61.8984H104.844C104.844 61.0807 104.661 60.4557 104.297 60.0234C103.932 59.5859 103.411 59.3672 102.734 59.3672ZM112.359 58.2812C112.74 58.2812 113.081 58.3125 113.383 58.375L113.203 59.5781C112.849 59.5 112.536 59.4609 112.266 59.4609C111.573 59.4609 110.979 59.7422 110.484 60.3047C109.995 60.8672 109.75 61.5677 109.75 62.4062V67H108.453V58.4375H109.523L109.672 60.0234H109.734C110.052 59.4661 110.435 59.0365 110.883 58.7344C111.331 58.4323 111.823 58.2812 112.359 58.2812Z" fill="white"/>
<path d="M1.15052 31.3155V28.0495L13.3979 22.3711V25.3402L4.26804 29.4598V29.7567L13.3979 33.9876V36.9567L1.15052 31.3155ZM27.3509 18.9196H29.9488L18.7035 43.0433H16.1055L27.3509 18.9196ZM32.7366 26.1938H35.6314V40.7423C35.6314 42.1773 35.1984 43.3278 34.3324 44.1938C33.4912 45.0598 32.4397 45.4928 31.1778 45.4928C29.8912 45.4928 28.7531 45.0351 27.7634 44.1196L29.0994 41.967C29.718 42.5361 30.3242 42.8206 30.918 42.8206C32.1304 42.8206 32.7366 42.1031 32.7366 40.668V26.1938ZM32.3283 22.1113C32.3283 21.6165 32.5015 21.1959 32.8479 20.8495C33.219 20.4783 33.652 20.2928 34.1469 20.2928C34.6417 20.2928 35.0747 20.4783 35.4458 20.8495C35.817 21.1959 36.0025 21.6165 36.0025 22.1113C36.0025 22.6309 35.817 23.0763 35.4458 23.4474C35.0747 23.7938 34.6417 23.967 34.1469 23.967C33.652 23.967 33.219 23.7814 32.8479 23.4103C32.5015 23.0887 32.3283 22.6557 32.3283 22.1113ZM51.0444 40H48.4094V38.1443C47.2465 39.5299 45.7125 40.2227 43.8073 40.2227C42.3475 40.2227 41.1475 39.8144 40.2073 38.9979C39.2918 38.1567 38.8341 37.068 38.8341 35.732C38.8341 34.3959 39.3289 33.3814 40.3186 32.6887C41.3083 31.9959 42.6692 31.6495 44.4011 31.6495H48.1867V31.1299C48.1867 29.299 47.1599 28.3835 45.1063 28.3835C43.8197 28.3835 42.4836 28.8536 41.098 29.7938L39.799 27.9753C41.5063 26.6392 43.4114 25.9711 45.5145 25.9711C47.2217 25.9711 48.5702 26.4041 49.5599 27.2701C50.5496 28.1113 51.0444 29.3856 51.0444 31.0928V40ZM48.1496 33.6907H44.8836C42.7805 33.6907 41.7289 34.3464 41.7289 35.6577C41.7289 36.3258 41.9887 36.8454 42.5083 37.2165C43.0279 37.5629 43.7578 37.7361 44.698 37.7361C45.663 37.7361 46.4795 37.4763 47.1475 36.9567C47.8155 36.4124 48.1496 35.7072 48.1496 34.8412V33.6907ZM53.4239 44.1196L54.76 41.7814C55.3785 42.3505 56.0094 42.6351 56.6527 42.6351C57.2713 42.6351 57.7909 42.4 58.2115 41.9299C58.6321 41.4845 58.8424 40.9773 58.8424 40.4082C58.8424 40.1856 56.9744 35.4474 53.2383 26.1938H56.3558L60.5125 36.3629L64.6321 26.1938H67.7496L61.0321 42.5979C60.6362 43.4887 60.0672 44.1938 59.3249 44.7134C58.5826 45.233 57.7661 45.4928 56.8754 45.4928C55.5888 45.4928 54.4383 45.0351 53.4239 44.1196ZM76.2833 33.0227C76.2833 30.9443 76.939 29.2495 78.2503 27.9381C79.5617 26.6268 81.1699 25.9711 83.0751 25.9711C84.906 25.9711 86.3782 26.7505 87.4916 28.3093V20.7381H90.4235V40H87.4916V37.9216C86.4524 39.4557 84.8936 40.2227 82.8153 40.2227C81.0091 40.2227 79.4627 39.5546 78.1761 38.2186C76.9143 36.8577 76.2833 35.1258 76.2833 33.0227ZM83.4462 37.6247C84.6091 37.6247 85.5864 37.2041 86.3782 36.3629C87.1699 35.5216 87.5658 34.4454 87.5658 33.134C87.5658 31.8474 87.1576 30.7588 86.3411 29.868C85.5493 28.9773 84.572 28.532 83.4091 28.532C82.2462 28.532 81.2442 28.9773 80.4029 29.868C79.5864 30.734 79.1782 31.8227 79.1782 33.134C79.1782 34.4454 79.5988 35.5216 80.44 36.3629C81.2813 37.2041 82.2833 37.6247 83.4462 37.6247ZM107.453 34.3588H96.6157C96.6899 35.3485 97.1476 36.1526 97.9889 36.7711C98.8301 37.3897 99.8074 37.699 100.921 37.699C102.678 37.699 103.989 37.1546 104.855 36.066L106.525 37.8845C105.04 39.4433 103.098 40.2227 100.698 40.2227C98.7188 40.2227 97.061 39.567 95.725 38.2557C94.3889 36.9443 93.7208 35.2124 93.7208 33.0598C93.7208 30.9567 94.4012 29.2495 95.7621 27.9381C97.1229 26.6268 98.7683 25.9711 100.698 25.9711C102.628 25.9711 104.236 26.5526 105.523 27.7155C106.809 28.8783 107.453 30.4247 107.453 32.3546V34.3588ZM104.558 32.0577C104.558 30.9443 104.199 30.066 103.482 29.4227C102.789 28.7794 101.886 28.4577 100.772 28.4577C99.659 28.4577 98.6817 28.7918 97.8404 29.4598C97.0239 30.1278 96.6157 30.9938 96.6157 32.0577H104.558ZM114.315 40L108.785 26.1938H111.791L115.985 36.6227L120.216 26.1938H123.222L117.655 40H114.315ZM137.613 28.0495V31.3155L125.365 36.9567V33.9876L134.532 29.7567V29.4598L125.365 25.3402V22.3711L137.613 28.0495Z" fill="#1378EF"/>
</svg>
