<svg width="29" height="18" viewBox="0 0 29 18" fill="none" xmlns="http://www.w3.org/2000/svg">
<path fill-rule="evenodd" clip-rule="evenodd" d="M27.5206 1.17371C27.7154 0.497714 27.5206 0 26.5876 0H23.5069C22.723 0 22.3615 0.429619 22.1655 0.90381C22.1655 0.90381 20.5988 4.86076 18.3795 7.43105C17.6613 8.17638 17.335 8.41286 16.9431 8.41286C16.7471 8.41286 16.4525 8.17638 16.4525 7.49914V1.17371C16.4525 0.361524 16.2366 0 15.5841 0H10.7395C10.2501 0 9.95553 0.376381 9.95553 0.73419C9.95553 1.50305 11.0657 1.68133 11.1796 3.84552V8.54781C11.1796 9.57914 11 9.7661 10.608 9.7661C9.56356 9.7661 7.02274 5.79057 5.51468 1.24181C5.22246 0.356571 4.92672 0 4.13924 0H1.05623C0.176038 0 0 0.429619 0 0.90381C0 1.74819 1.04449 5.94286 4.86452 11.4908C7.4112 15.2793 10.9965 17.3333 14.2626 17.3333C16.2213 17.3333 16.4631 16.8777 16.4631 16.0915V13.2278C16.4631 12.3153 16.6485 12.1333 17.2693 12.1333C17.727 12.1333 18.5098 12.371 20.3383 14.1972C22.4272 16.3627 22.7711 17.3333 23.947 17.3333H27.0277C27.9079 17.3333 28.3492 16.8777 28.0957 15.9764C27.8163 15.08 26.8188 13.7788 25.4962 12.2349C24.7779 11.3558 23.7006 10.4087 23.3731 9.93448C22.9166 9.32657 23.0469 9.05543 23.3731 8.51438C23.3731 8.51438 27.1286 3.03457 27.5194 1.17371H27.5206Z" fill="#1378EF"/>
</svg>
